<svg xmlns="http://www.w3.org/2000/svg" viewBox="0 0 180 180">
  <path fill="#fff" d="M180 90a90 90 0 0 1-90 90A90 90 0 0 1 0 90 90 90 0 0 1 90 0a90 90 0 0 1 90 90"/>
  <g stroke="#000" stroke-linejoin="round">
    <path fill="red" stroke-width="3" d="M102.5 50.42 76.622 60.495l30.838.425zM69.415 7.56l-7.589 25.75.777 17.087L83.2 31.588 69.415 7.56M102.5 33.145l10.69-22.22 2.15 31.515z"/>
    <path fill="none" stroke-width="3" d="m102.5 50.42 21.19-1.942M83.2 31.588l19.3 18.832M69.218 92.249l3.988 63.631m-3.988-63.631L44.582 66.861m123.738 3.843-14.77 2.187m-70.357 7.068 70.357-7.068M19.184 134.9l64.009-54.941m5.552 16.542 19.965 5.699m0 0 21.02-44.933m0 0-22.27 3.653m0 0 46.09 11.971m0 0 4.43 14.859m-69.235 8.751 69.235-8.751m-84.774 68.13 15.539-59.379M38.468 72.442l34.738 83.438M38.468 72.442l38.154-11.947M114.17 171.49l-37.548-111"/>
    <path fill="none" stroke-linecap="round" stroke-width="10" d="M69.415 7.56 83.2 31.587m-.002.001 19.302 1.557m-13.945-1.122 24.635-21.098m-10.69 22.22 21.19 15.333m-10.5-37.553 2.15 31.515m8.35 6.038 6.04 8.788m0 0 38.59 13.438m-.01.003L157.98 87.75m0-.001L108.71 102.2m0 0 5.46 69.29m0 0L19.184 134.9m.001 0 19.283-62.458m6.114-5.581 38.616-35.273m-44.73 40.854 6.114-5.581m1.122-24.81-1.122 24.81M69.415 7.56 45.704 42.05"/>
  </g>
</svg>
